This is my own rip.

General
Unique ID                        : 252403815359172972047403809972296054355 (0xBDE334E43F61FE74BD05CB9E0A537653)
Format                           : Matroska
Format version                   : Version 4 / Version 2
File size                        : 2.95 GiB
Duration                         : 1h 31mn
Overall bit rate mode            : Variable
Overall bit rate                 : 4 590 Kbps
Encoded date                     : UTC 2013-01-31 16:21:49
Writing application              : mkvmerge v6.0.0 ('Coming Up For Air') built on Jan 20 2013 09:52:00
Writing library                  : libebml v1.3.0 + libmatroska v1.4.0

Video
ID                               : 1
Format                           : AVC
Format/Info                      : Advanced Video Codec
Format profile                   : High@L4.1
Format settings, CABAC           : Yes
Format settings, ReFrames        : 4 frames
Codec ID                         : V_MPEG4/ISO/AVC
Duration                         : 1h 31mn
Bit rate mode                    : Variable
Bit rate                         : 4 051 Kbps
Maximum bit rate                 : 11.6 Mbps
Width                            : 1 396 pixels
Height                           : 1 060 pixels
Display aspect ratio             : 4:3
Frame rate                       : 23.976 fps
Color space                      : YUV
Chroma subsampling               : 4:2:0
Bit depth                        : 8 bits
Scan type                        : Progressive
Bits/(Pixel*Frame)               : 0.114
Stream size                      : 2.60 GiB (88%)
Writing library                  : x264 core 129 r2230 1cffe9f
Language                         : English
Default                          : Yes
Forced                           : No

Audio
ID                               : 2
Format                           : AC-3
Format/Info                      : Audio Coding 3
Mode extension                   : CM (complete main)
Codec ID                         : A_AC3
Duration                         : 1h 31mn
Bit rate mode                    : Constant
Bit rate                         : 448 Kbps
Channel(s)                       : 6 channels
Channel positions                : Front: L C R, Side: L R, LFE
Sampling rate                    : 48.0 KHz
Bit depth                        : 16 bits
Compression mode                 : Lossy
Stream size                      : 295 MiB (10%)
Language                         : English
Default                          : Yes
Forced                           : No

Menu
00:00:00.000                     : Opening Credits
00:00:46.004                     : Lord of the Universe
00:09:40.497                     : Lunch With Walter
00:14:49.222                     : Gentlemen of the Press
00:19:37.968                     : $100,000 Policy
00:24:12.826                     : Earl Williams Interview
00:27:43.620                     : Miss Mollie Malloy
00:32:29.698                     : Sheriff Peter B. Hartwell
00:35:11.298                     : Watch Thief
00:42:10.486                     : Dr. Max J. Egelhoffer
00:45:51.165                     : Jailbreak
00:53:11.355                     : Masher
00:58:07.192                     : The Mayor
01:02:25.867                     : The Reprieve
01:09:12.982                     : Earl Drops In
01:19:03.636                     : Mrs. Baldwin
01:22:32.428                     : Giving Them a Story
01:29:40.041                     : Walter Takes Charge
01:31:24.270                     : End Credits
